SplineFontDB: 3.0
FontName: Valley
FullName: Valley
FamilyName: Valley
Weight: Regular
Copyright: Created by trashman with FontForge 2.0 (http://fontforge.sf.net)
UComments: "2010-10-4: Created." 
Version: 001.000
ItalicAngle: 0
UnderlinePosition: -100
UnderlineWidth: 50
Ascent: 730
Descent: 270
LayerCount: 3
Layer: 0 0 "Back"  1
Layer: 1 0 "Fore"  0
Layer: 2 0 "backup"  0
NeedsXUIDChange: 1
XUID: [1021 658 797806517 11561335]
OS2Version: 0
OS2_WeightWidthSlopeOnly: 0
OS2_UseTypoMetrics: 1
CreationTime: 1286180940
ModificationTime: 1287730882
OS2TypoAscent: 0
OS2TypoAOffset: 1
OS2TypoDescent: 0
OS2TypoDOffset: 1
OS2TypoLinegap: 0
OS2WinAscent: 0
OS2WinAOffset: 1
OS2WinDescent: 0
OS2WinDOffset: 1
HheadAscent: 0
HheadAOffset: 1
HheadDescent: 0
HheadDOffset: 1
OS2Vendor: 'PfEd'
MarkAttachClasses: 1
DEI: 91125
Encoding: UnicodeBmp
UnicodeInterp: none
NameList: Adobe Glyph List
DisplaySize: -48
AntiAlias: 1
FitToEm: 1
WinInfo: 88 11 5
BeginPrivate: 6
BlueValues 15 [-23 6 438 470]
BlueScale 9 0.0309375
StdHW 4 [37]
StemSnapH 35 [23 27 31 33 37 42 46 54 79 88 118]
StdVW 4 [88]
StemSnapV 14 [80 88 92 103]
EndPrivate
BeginChars: 65536 63

StartChar: a
Encoding: 97 97 0
Width: 504
VWidth: 0
Flags: HW
HStem: -12 42<163.309 265.027 431.624 485.909> 222 28<271.168 334> 236 33<181.032 324.993> 434 34<173.281 293.055>
VStem: 24 107<64.0932 190.614> 60 93<336.531 407.63> 334 92<83.229 227.447 250 392.627>
LayerCount: 3
Fore
SplineSet
334 222 m 1xda
 307 229 279 236 244 236 c 0xba
 173 236 131 190 131 126 c 0
 131 79 166 30 213 30 c 0
 281 30 334 92 334 146 c 2
 334 222 l 1xda
426 262 m 2
 426 82 l 2
 426 47 441 28 466 24 c 0
 480 22 485 22 485 4 c 0
 485 -5 480 -12 465 -12 c 0
 449 -12 414 -8 376 2 c 0
 344 10 341 34 336 67 c 1
 336 67 282 -12 178 -12 c 0
 100 -12 24 44 24 120 c 0
 24 215 121 269 216 269 c 0xba
 267 269 335 250 335 250 c 1
 335 294 l 2
 335 407 291 433 233 433 c 0
 226 433 217 433 207 431 c 0
 173 426 160 415 153 384 c 0
 145 350 133 324 98 324 c 0
 77 324 60 336 60 362 c 0xd6
 60 421 156 469 243 469 c 0
 273 469 300 464 323 457 c 0
 396 436 426 387 426 262 c 2
EndSplineSet
EndChar

StartChar: b
Encoding: 98 98 1
Width: 568
VWidth: 0
Flags: HW
HStem: -18 35<258.664 380.119> -10 21G<113.5 170.5> 432 32<282.268 381.059> 669 42<17.0196 112.794>
VStem: 104 73<-10 49.8856> 113 97<532.5 669.987> 440 103<112.838 348.659>
LayerCount: 3
Fore
SplineSet
165 -10 m 2x7a
 121 -10 l 2
 106 -10 104 -10 104 0 c 0x7a
 104 87 113 412 113 638 c 0
 113 652 113 670 97 670 c 0
 68 670 52 669 24 669 c 0
 20 669 17 680 17 689 c 0
 17 701 22 711 31 711 c 0
 44 711 128 705 169 705 c 2
 201 705 l 2
 209 705 211 704 211 699 c 0
 211 696 210 691 210 685 c 2
 196 380 l 1
 196 380 256 464 350 464 c 0
 459 464 543 375 543 242 c 0
 543 62 448 -18 325 -18 c 0xb6
 240 -18 206 52 197 52 c 0
 189 52 180 26 177 8 c 0
 175 -9 176 -10 165 -10 c 2x7a
194 216 m 0
 194 170 198 130 209 98 c 0
 227 48 264 18 318 18 c 0xb2
 425 18 440 120 440 230 c 0
 440 314 429 432 324 432 c 0
 265 432 227 389 209 334 c 0
 197 297 194 255 194 216 c 0
EndSplineSet
EndChar

StartChar: c
Encoding: 99 99 2
Width: 468
VWidth: 0
Flags: HW
HStem: -18 36<208.687 338.757> 432 35<200.608 313.052>
VStem: 26 104<117.403 322.587>
LayerCount: 3
Fore
SplineSet
265 433 m 0
 162 433 130 336 130 242 c 0
 130 132 162 18 274 18 c 0
 323 18 368 47 394 93 c 0
 399 100 409 134 420 134 c 0
 428 134 439 128 439 122 c 0
 439 113 435 99 430 90 c 0
 390 22 342 -18 258 -18 c 0
 124 -18 28 87 28 221 c 0
 28 366 140 465 262 465 c 0
 317 465 413 436 413 375 c 0
 413 352 403 336 381 336 c 0
 333 336 333 408 305 423 c 0
 292 430 281 433 265 433 c 0
EndSplineSet
EndChar

StartChar: d
Encoding: 100 100 3
Width: 578
VWidth: 0
Flags: HW
HStem: -22 37<186.868 296.39 466.792 554.614> 421 35<190.998 299.691> 663 30<295.745 366> 665 37<267.007 332.394>
VStem: 27 105<106.005 320.758> 372 94<364.109 660.122> 376 8<-4 69> 380 80<17.6841 69 108.848 334.471 364 607.369>
LayerCount: 3
Fore
SplineSet
384 69 m 1xea
 384 68 316 -22 225 -22 c 0
 112 -22 27 89 27 204 c 0
 27 331 95 456 236 456 c 0
 324 456 379 364 379 364 c 1
 379 364 374 514 372 612 c 0
 371 642 370 661 333 663 c 0xec
 320 664 311 664 295 665 c 0
 277 666 267 665 267 684 c 0
 267 697 270 701 280 701 c 0xdc
 292 701 350 691 443 691 c 0
 459 691 466 691 466 678 c 0
 466 675 465 642 464 624 c 0
 459 486 458 323 458 164 c 2
 458 102 l 2
 458 61 460 19 483 14 c 0
 492 12 504 10 519 10 c 0
 552 10 555 8 555 -9 c 0
 555 -24 544 -26 529 -26 c 0
 512 -26 418 -15 397 -15 c 0
 380 -15 376 -12 376 -4 c 0
 376 -1 382 48 384 69 c 1xea
132 212 m 0
 132 123 147 15 242 15 c 0
 330 15 380 118 380 214 c 0xc9
 380 311 345 421 243 421 c 0
 151 421 132 304 132 212 c 0
EndSplineSet
EndChar

StartChar: e
Encoding: 101 101 4
Width: 464
VWidth: 0
Flags: HW
HStem: -23 36<202.047 332.492> 223 30<127.078 357.998> 426 31<192.875 285.808>
VStem: 24.9342 102.066<116.82 323.794> 358 83<231.5 341.778>
LayerCount: 3
Fore
SplineSet
256 -23 m 0
 128 -23 25 81 25 221 c 0
 25 357 124 457 236 457 c 0
 360 457 441 367 441 234 c 0
 441 224 439 223 425 223 c 2
 141 223 l 2
 129 223 127 224 127 214 c 0
 127 173 130 13 270 13 c 0
 338 13 385 63 408 90 c 0
 417 100 421 106 430 100 c 0
 435 97 437 93 437 90 c 0
 437 85 434 80 429 73 c 0
 408 40 340 -23 256 -23 c 0
138 253 m 2
 347 253 l 2
 355 253 358 256 358 265 c 0
 358 319 321 426 238 426 c 0
 161 426 129 321 126 274 c 0
 126 269 124 265 124 262 c 0
 124 256 127 253 138 253 c 2
EndSplineSet
EndChar

StartChar: f
Encoding: 102 102 6
Width: 365
VWidth: 0
Flags: HW
HStem: -8 37<17.0404 122.631 228.815 324.889> 3 31<43.8765 124.72 226.792 302.031> 404 37<25.0051 128 219 348.997> 687 36<235.526 296.584>
VStem: 128 91<36.8651 405 440 636.739> 301 83<596.545 684.724>
LayerCount: 3
Fore
SplineSet
303 647 m 0x7c
 303 670 292 687 265 687 c 0
 246 687 235 673 228 653 c 0
 219 626 219 569 219 463 c 2
 219 440 l 1
 322 440 l 2
 345 440 349 438 349 422 c 0
 349 407 346 404 320 404 c 0
 292 404 277 404 219 405 c 1
 219 74 l 2
 219 31 240 32 270 30 c 0
 278 29 294 29 303 29 c 0
 317 29 325 26 325 14 c 0
 325 -4 319 -7 305 -7 c 0xbc
 269 -7 199 1 174 1 c 0
 126 1 61 -6 43 -6 c 0
 23 -6 17 -3 17 12 c 0
 17 24 18 30 35 31 c 2
 101 34 l 2
 123 35 128 46 128 80 c 2
 128 405 l 1
 100 405 68 404 42 404 c 0
 32 404 25 407 25 423 c 0
 25 439 31 441 41 441 c 0
 67 441 98 440 130 440 c 9
 130 543 l 2
 130 630 181 721 275 721 c 0
 325 721 384 692 384 638 c 0
 384 609 369 589 343 589 c 0
 307 589 303 614 303 647 c 0x7c
EndSplineSet
EndChar

StartChar: g
Encoding: 103 103 7
Width: 525
VWidth: 0
Flags: HW
HStem: -238 27<146.317 312.641> -11 79<133.669 390.127> 131 23<187.002 272.797> 409 39<409.304 479.5> 432 27<187.44 276.631>
VStem: 17 63<-167.114 -64.3101> 20 33<56 141.588> 59 85<222.663 370.167> 324 84<209.989 379.902> 431 47<-144.55 -44.709> 465 59<361.66 408.439>
LayerCount: 3
Fore
SplineSet
20 82 m 0xf280
 20 133 46 159 69 172 c 0
 89 183 108 186 108 186 c 1
 108 186 59 232 59 298 c 0
 59 383 140 459 251 459 c 0xeb80
 302 459 345 422 365 402 c 0
 374 393 372 395 383 405 c 0
 397 418 424 447 462 447 c 0
 493 447 524 429 524 399 c 0
 524 376 508 361 491 361 c 0
 481 361 471 365 465 380 c 0
 460 394 455 409 441 409 c 0
 425 409 410 396 398 384 c 0
 390 376 388 373 388 370 c 0
 388 368 401 342 404 326 c 0
 407 313 408 298 408 286 c 0
 408 204 338 131 242 131 c 0
 184 131 144 154 124 170 c 1
 124 170 107 168 91 161 c 0
 73 153 53 137 53 116 c 0xf3a0
 53 77 93 73 130 70 c 0
 157 68 187 68 217 68 c 2
 224 68 l 2
 254 68 362 67 411 45 c 0
 450 28 478 -9 478 -64 c 0
 478 -201 340 -238 226 -238 c 0
 115 -238 17 -198 17 -114 c 0xf4c0
 17 -71 65 -36 98 -21 c 0
 107 -17 111 -15 111 -13 c 0
 111 -11 104 -9 93 -5 c 0
 64 5 20 30 20 82 c 0xf280
137 -30 m 0
 101 -57 80 -72 80 -112 c 0
 80 -178 151 -211 212 -211 c 0
 302 -211 431 -178 431 -93 c 0xe4c0
 431 -15 321 -11 244 -11 c 2
 202 -11 l 2
 179 -11 160 -13 137 -30 c 0
234 432 m 0xe980
 162 432 144 362 144 296 c 0
 144 224 158 154 228 154 c 0
 305 154 324 230 324 298 c 0
 324 358 302 432 234 432 c 0xe980
EndSplineSet
EndChar

StartChar: h
Encoding: 104 104 8
Width: 624
VWidth: 0
Flags: HW
HStem: -6 35<17.351 105.391 206.762 278.837 347.006 432.901 529.588 609.947> 421 39<322.602 419.463> 666 40<17.0581 109.92> 666 32<31.3782 108.625>
VStem: 112 90<33.1514 321.852 338 591.162> 116 94<255.094 692> 436 90<31.9963 407.484>
LayerCount: 3
Fore
SplineSet
591 27 m 0xd6
 605 26 608 23 608 9 c 0
 608 -4 597 -5 587 -5 c 2
 578 -5 l 2
 570 -5 522 0 480 0 c 0
 432 0 367 -5 362 -5 c 0
 355 -5 347 -3 347 12 c 0
 347 21 349 28 370 29 c 0
 382 30 401 31 410 32 c 0
 426 33 436 44 436 63 c 2
 436 350 l 2
 436 395 419 420 376 420 c 0
 342 420 303 399 277 378 c 0
 233 342 202 298 202 255 c 2
 202 60 l 2
 202 42 207 31 222 29 c 0
 230 28 246 26 255 26 c 0
 272 26 279 22 279 11 c 0
 279 -1 273 -3 255 -3 c 0
 243 -3 196 2 152 2 c 0
 110 2 58 -3 40 -3 c 0
 27 -3 17 -1 17 14 c 0
 17 26 25 29 35 29 c 0
 42 29 61 30 67 30 c 0
 99 32 111 32 112 70 c 0xda
 115 285 116 406 116 618 c 0
 116 640 107 666 84 666 c 2
 28 666 l 2
 20 666 17 675 17 684 c 0
 17 695 22 706 30 706 c 0xe6
 42 706 103 699 159 699 c 0
 173 699 188 699 203 700 c 0
 206 700 210 694 210 690 c 0
 207 551 198 336 198 336 c 1
 226 372 295 458 416 458 c 0
 473 458 526 440 526 371 c 2
 526 60 l 2
 526 34 530 31 554 29 c 0
 562 28 571 28 591 27 c 0xd6
EndSplineSet
EndChar

StartChar: i
Encoding: 105 105 9
Width: 300
VWidth: 0
Flags: HW
HStem: -4 32<17.0356 111.322 211.07 285.991> 411 34<12.0015 119.157> 570 118<110.339 201.661>
VStem: 97 118<583.339 674.661> 121 87<34.8141 411.989>
LayerCount: 3
Fore
SplineSet
97 629 m 0xf0
 97 662 123 688 156 688 c 0
 189 688 215 662 215 629 c 0
 215 596 189 570 156 570 c 0
 123 570 97 596 97 629 c 0xf0
208 62 m 2xe8
 208 34 216 28 232 26 c 0
 240 25 266 24 274 23 c 0
 283 22 286 21 286 9 c 0
 286 -3 286 -6 268 -6 c 0
 259 -6 166 1 164 1 c 0
 118 1 37 -7 27 -7 c 0
 20 -7 16 2 16 10 c 0
 16 17 19 25 27 25 c 0
 40 25 60 27 71 28 c 0
 104 31 121 32 121 76 c 2
 121 380 l 2
 121 397 118 411 102 411 c 2
 22 411 l 2
 14 411 12 418 12 427 c 0
 12 438 12 445 20 445 c 0
 26 445 115 439 169 439 c 2
 194 439 l 2
 202 439 209 439 209 430 c 0
 209 307 208 263 208 195 c 2
 208 62 l 2xe8
EndSplineSet
EndChar

StartChar: j
Encoding: 106 106 10
Width: 316
VWidth: 0
Flags: HW
HStem: -234 54<23.7833 89.926> 411 35<12.0015 125.712> 411 27<21.7944 123.035> 572 118<129.339 220.661>
VStem: 116 118<585.339 676.661> 141 92<-110.952 401.435>
LayerCount: 3
Fore
SplineSet
116 631 m 0x98
 116 664 142 690 175 690 c 0
 208 690 234 664 234 631 c 0
 234 598 208 572 175 572 c 0
 142 572 116 598 116 631 c 0x98
141 360 m 0xb4
 141 382 130 410 104 410 c 2
 22 411 l 2
 14 411 10 418 10 427 c 0
 10 438 12 446 20 446 c 0xd4
 50 446 114 439 170 439 c 0
 199 439 203 440 225 440 c 0
 231 440 233 434 233 430 c 0
 233 419 229 410 229 334 c 2
 228 -6 l 2
 228 -47 226 -85 202 -124 c 0
 170 -176 92 -212 52 -227 c 0
 41 -231 35 -234 30 -234 c 0
 23 -234 16 -223 16 -213 c 0
 16 -206 22 -204 25 -202 c 0
 40 -194 50 -191 66 -182 c 0
 103 -162 139 -120 139 -59 c 0
 139 80 141 218 141 360 c 0xb4
EndSplineSet
EndChar

StartChar: k
Encoding: 107 107 11
Width: 542
VWidth: 0
Flags: HW
HStem: -3 29<11.0549 90.6504 198.404 268.963 302.009 354.174 471.241 527.991> 222 20<192.722 227.249> 408 30<382.375 480.59> 411 34<252.311 324.617 383.969 502.821> 670 34<16.0728 97.803>
VStem: 103 87<44.282 221.487 432.773 662.527>
DStem2: 300 259 247 206 0.601905 -0.798567<-17.1189 200.982>
LayerCount: 3
Fore
SplineSet
362 439 m 0xec
 417 439 459 445 482 445 c 0
 497 445 504 444 504 430 c 0
 504 415 496 415 482 414 c 0xdc
 443 412 396 410 375 388 c 0
 344 355 321 324 301 295 c 0
 295 287 290 280 290 276 c 0
 290 272 292 267 298 259 c 2
 452 61 l 2
 470 38 486 24 520 22 c 0
 526 22 530 17 530 11 c 0
 530 3 527 -4 521 -4 c 0
 494 -4 450 2 404 2 c 0
 365 2 322 -2 314 -2 c 0
 308 -2 302 3 302 11 c 0
 302 19 307 24 313 25 c 0
 322 26 332 26 339 27 c 0
 354 29 359 37 359 46 c 0
 359 55 354 66 348 74 c 2
 247 208 l 2
 239 218 232 226 225 226 c 0
 218 226 209 223 205 221 c 0
 192 216 190 217 190 201 c 2
 190 84 l 2
 190 42 194 34 224 30 c 0
 234 29 246 28 262 26 c 0
 267 25 269 17 269 10 c 0
 269 4 264 -2 259 -2 c 0
 244 -2 206 5 144 5 c 0
 104 5 54 -1 29 -1 c 0
 20 -1 14 3 14 13 c 0
 14 28 20 28 35 29 c 0
 47 30 65 30 73 31 c 0
 103 34 104 39 104 69 c 2
 109 621 l 2
 109 637 109 653 98 663 c 0
 94 667 77 669 65 670 c 0
 53 671 42 672 26 672 c 0
 20 672 16 674 16 685 c 0
 16 694 20 704 27 704 c 0
 49 704 112 697 142 697 c 0
 162 697 171 698 189 698 c 0
 194 698 195 691 195 686 c 0
 193 525 186 273 186 252 c 0
 186 245 187 241 193 241 c 0
 224 241 261 281 272 296 c 0
 287 317 303 338 324 371 c 0
 327 376 328 382 328 387 c 0
 328 401 320 414 308 415 c 0
 295 417 274 418 261 419 c 0
 254 420 253 425 253 428 c 0
 253 436 256 443 265 443 c 0
 268 443 292 439 362 439 c 0xec
EndSplineSet
EndChar

StartChar: l
Encoding: 108 108 12
Width: 326
VWidth: 0
Flags: HW
HStem: -7 37<15.0564 109.57 211.107 306.585> 670 39<16.2892 107.528>
VStem: 113 95<33.2014 662.715>
LayerCount: 3
Fore
SplineSet
208 201 m 2
 208 79 l 2
 208 33 211 34 252 30 c 0
 259 29 277 29 286 28 c 0
 299 27 307 25 307 9 c 0
 307 0 301 -5 288 -5 c 0
 267 -5 203 4 154 4 c 0
 117 4 56 -5 26 -5 c 0
 18 -5 16 8 16 15 c 0
 16 30 23 31 42 31 c 0
 53 31 75 31 84 32 c 0
 101 33 115 35 115 60 c 0
 116 235 118 446 118 640 c 0
 118 664 110 670 86 670 c 2
 26 671 l 2
 20 671 16 674 16 685 c 0
 16 694 20 706 30 706 c 0
 91 706 126 703 155 703 c 0
 175 703 190 703 211 704 c 0
 216 704 219 696 219 691 c 0
 219 675 215 603 214 552 c 0
 212 396 208 217 208 201 c 2
EndSplineSet
EndChar

StartChar: m
Encoding: 109 109 13
Width: 928
VWidth: 0
Flags: HW
HStem: -8 33<32.1445 103.275> -4 40<370 418.467> -4 36<210.222 288.417 346.539 382 526.319 602.878 658.458 737.783 837.26 916.577> 406 41<21.006 115.73> 419 46<313.988 419.165 627.48 727.275>
VStem: 119 89<37.0822 332.563 343.953 406.25> 119 80<343 406.25> 430 86<42.944 321.784 350 405.398> 745 88<39.2506 402.507>
LayerCount: 3
Fore
SplineSet
875 31 m 0
 882 30 896 29 902 28 c 0
 912 26 917 23 917 12 c 0
 917 -2 906 -4 887 -4 c 0
 874 -4 815 3 787 3 c 0
 750 3 692 -2 676 -2 c 0
 666 -2 660 4 660 12 c 0
 660 28 669 29 683 30 c 0
 693 31 705 32 708 32 c 0
 742 37 746 49 746 61 c 2
 746 346 l 2
 746 399 725 421 680 421 c 0
 622 421 554 367 528 302 c 0
 519 278 517 268 517 248 c 2
 517 99 l 2
 517 55 520 35 560 29 c 0
 568 28 575 28 580 27 c 0
 599 25 602 25 602 13 c 0
 602 2 599 -2 582 -2 c 0
 565 -2 507 3 475 3 c 0
 420 3 373 -2 365 -2 c 0
 355 -2 348 2 348 10 c 0
 348 22 357 29 370 31 c 0
 374 32 390 33 394 34 c 0
 420 38 431 45 431 83 c 0
 431 192 432 239 432 348 c 0
 432 384 425 422 368 422 c 0
 311 422 268 386 239 347 c 0
 213 313 208 294 208 238 c 2
 208 62 l 2
 208 34 218 32 244 30 c 0
 265 28 289 33 289 9 c 0
 289 -3 278 -4 265 -4 c 0
 252 -4 191 2 168 2 c 0
 121 2 75 -5 50 -5 c 0
 40 -5 34 3 34 11 c 0
 34 22 39 26 47 27 c 0
 61 28 80 29 90 31 c 0
 119 37 121 46 121 65 c 0
 121 277 120 150 120 362 c 0
 120 384 109 409 107 409 c 2
 31 411 l 2
 23 411 21 418 21 427 c 0
 21 438 21 447 29 447 c 0
 63 447 136 441 198 441 c 0
 201 441 206 435 206 431 c 0
 205 405 198 358 198 338 c 1
 237 410 317 463 404 463 c 0
 512.505050702 463 516 360.804079209 516 349 c 1
 516 349 597 465 712 465 c 0
 813 465 833 409 833 341 c 2
 833 75 l 2
 833 42 833 37 875 31 c 0
EndSplineSet
EndChar

StartChar: n
Encoding: 110 110 14
Width: 624
VWidth: 0
Flags: HW
HStem: -5 38<17.0381 106.711 209.168 288.991 349.018 427.811 528.451 610> 414 41<12.008 109.292> 421 44<314.297 422.014>
VStem: 113 91<38.0883 319.265 336 412.926> 436 91<39.3669 407.03>
LayerCount: 3
Fore
SplineSet
596 28 m 0xb8
 603 27 610 25 610 16 c 2
 610 9 l 2
 610 -4 602 -4 584 -4 c 0
 572 -4 510 1 480 1 c 0
 420 1 393 -3 362 -3 c 0
 354 -3 349 -2 349 13 c 0
 349 30 355 33 376 33 c 0
 384 33 393 33 400 34 c 0
 415 36 436 42 436 70 c 2
 436 344 l 2
 436 390 419 423 374 423 c 0xb8
 291 423 202 321 202 255 c 2
 203 66 l 2
 203 26 238 34 259 32 c 0
 276 30 289 36 289 14 c 0
 289 2 283 -4 265 -4 c 0
 233 -4 212 1 152 1 c 0
 87 1 67 -4 40 -4 c 0
 25 -4 17 -1 17 15 c 0
 17 32 26 33 43 33 c 2
 65 33 l 2
 98 33 112 34 112 72 c 2
 112 368 l 2
 112 390 112 412 89 414 c 2
 37 418 l 2
 12 420 12 425 12 434 c 0
 12 450 21 453 36 453 c 0xd8
 56 453 146 446 187 446 c 0
 202 446 204 444 204 432 c 0
 204 412 200 336 200 336 c 1
 200 336 266 464 400 464 c 0
 458 464 526 445 526 364 c 2
 526 58 l 2
 526 34 543 32 563 30 c 0
 574 29 583 29 596 28 c 0xb8
EndSplineSet
EndChar

StartChar: o
Encoding: 111 111 15
Width: 492
VWidth: 0
Flags: HW
HStem: -24 39<182.403 319.85> 426 35<187.864 310.138>
VStem: 23 109<115.953 319.198> 366 102<107.998 324.837>
LayerCount: 3
Fore
SplineSet
252 461 m 0
 381 461 468 346 468 220 c 0
 468 81 384 -24 252 -24 c 0
 119 -24 23 88 23 221 c 0
 23 349 125 461 252 461 c 0
250 426 m 0
 136 426 132 321 132 218 c 0
 132 104 139 15 254 15 c 0
 366 15 366 116 366 218 c 0
 366 317 359 426 250 426 c 0
EndSplineSet
EndChar

StartChar: p
Encoding: 112 112 16
Width: 581
VWidth: 0
Flags: HW
HStem: -246 38<24.0058 115.356> -246 30<213.499 306.997> -238 27<212 293.721> -20 33<282.963 400.18> 426 38<26.0703 119.995 278.677 397.868> 426 31<41.7091 118.949>
VStem: 121 83<-172.347 75 90.041 347.423 373 425.576> 457 103<108.407 330.176>
LayerCount: 3
Fore
SplineSet
366 464 m 0x1b
 474 464 558 351 558 222 c 0
 558 60 453 -17 342 -17 c 0
 243 -17 203 75 203 75 c 1
 203 75 206 -93 210 -198 c 0
 210 -205 212 -210 228 -211 c 2x3b
 295 -216 l 2
 301 -216 305 -224 305 -231 c 0
 305 -238 301 -246 294 -246 c 0x53
 284 -246 213 -238 164 -238 c 0x33
 113 -238 55 -243 36 -243 c 0
 29 -243 24 -237 24 -227 c 0
 24 -218 29 -209 36 -209 c 2
 71 -209 l 2
 96 -209 116 -208 116 -180 c 0
 116 10 119 129 119 297 c 2
 119 405 l 2
 119 424 112 425 98 427 c 0
 88 428 39 431 37 431 c 0
 27 432 24 441 24 447 c 0
 24 457 25 464 39 464 c 0x9b
 54 464 79 459 155 459 c 2x17
 201 459 l 2
 209 459 211 456 211 447 c 0
 211 426 206 406 206 384 c 2
 206 373 l 1
 206 373 242 464 366 464 c 0x1b
342 428 m 0
 228 428 201 316 201 219 c 0
 201 178 203 144 212 116 c 0
 236 41 291 11 340 11 c 0
 450 11 455 129 455 222 c 0
 455 312 435 428 342 428 c 0
EndSplineSet
EndChar

StartChar: q
Encoding: 113 113 17
Width: 538
VWidth: 0
Flags: HW
HStem: -235 34<288.039 370.728 465.517 551.961> -227 27<299.322 370.562 465.676 551.149> -10 32<194.631 294.538> 426 36<190.763 309.72> 432 20G<398.5 452>
VStem: 27 103<120.17 333.823> 373 89<-197.82 76> 381 81<105.772 342.81 376 451.646>
LayerCount: 3
Fore
SplineSet
250 458 m 0
 303 458 350 425 374 387 c 0
 378 381 381 373 384 373 c 0
 386 373 387 377 387 388 c 2
 387 410 l 2
 387 434 390 450 405 450 c 2
 444 450 l 2x2e
 460 450 460 447 460 426 c 2x35
 462 -160 l 2
 462 -178 463 -199 486 -201 c 0x76
 496 -202 524 -204 535 -205 c 0
 546 -206 552 -209 552 -219 c 0
 552 -235 546 -235 538 -235 c 0xa6
 518 -235 452 -228 416 -228 c 0x66
 367 -228 309 -235 299 -235 c 0
 292 -235 289 -224 289 -217 c 0
 289 -212 294 -204 303 -203 c 0
 312 -202 333 -201 344 -200 c 0
 365 -199 375 -196 375 -176 c 0
 375 -72 378 76 378 76 c 5
 378 76 322 -10 230 -10 c 0
 106 -10 27 99 27 232 c 0
 27 362 122 458 250 458 c 0
250 426 m 0
 148 426 130 318 130 228 c 0
 130 136 149 20 246 20 c 0
 305 20 349 61 368 114 c 0
 379 145 381 181 381 219 c 0x35
 381 252 379 287 370 318 c 0
 353 372 317 426 250 426 c 0
EndSplineSet
EndChar

StartChar: r
Encoding: 114 114 18
Width: 477
VWidth: 0
Flags: HW
HStem: -9 39<19.058 117.333 224.607 317.991> 419 38<21.5848 116.268> 434 38<314.698 400.5>
VStem: 124 94<47.2827 324.887 346 411.636> 355 103<352.533 433.465>
LayerCount: 3
Fore
SplineSet
379 471 m 0xb8
 422 471 458 445 458 404 c 0
 458 370 445 343 400 343 c 0
 375 343 355 369 355 390 c 0
 355 404 356 414 356 421 c 0
 356 428 353 431 348 431 c 0
 286 431 217 306 217 244 c 2
 217 71 l 2
 217 42 230 31 250 31 c 2
 310 31 l 2
 317 31 320 19 320 10 c 0
 320 1 317 -6 310 -6 c 0
 264 -6 231 2 174 2 c 0
 92 2 48 -9 32 -9 c 0
 23 -9 19 2 19 12 c 0
 19 22 28 29 33 29 c 0
 53 30 66 31 90 32 c 0
 112 33 124 50 124 72 c 2
 124 376 l 2
 124 413 112 419 88 420 c 0
 76 421 54 422 36 423 c 0
 26 424 23 431 23 442 c 0
 23 449 32 458 39 458 c 0
 56 458 138 452 198 452 c 0
 213 452 218 451 218 439 c 0
 218 433 211 391 208 356 c 0
 207 350 207 331 217 348 c 0
 229 368 249 402 280 429 c 0
 307 453 341 471 379 471 c 0xb8
EndSplineSet
EndChar

StartChar: s
Encoding: 115 115 19
Width: 376
VWidth: 0
Flags: HW
HStem: -18 37<123.909 250.922> 432 32<135.902 241.003>
VStem: 33 62<226.503 385.132> 289 60<54.3108 143.647> 300 24<331.047 361.603>
LayerCount: 3
Fore
SplineSet
194 464 m 0xf0
 238 464 269 459 312 437 c 0
 321 433 323 423 323 410 c 0
 323 362 324 350 324 342 c 0
 324 335 317 333 311 333 c 0
 306 333 302 333 300 338 c 0xe8
 285 374 255 433 194 433 c 0
 143 433 95 399 95 351 c 0
 95 303 142 291 193 273 c 0
 269 247 349 224 349 126 c 0
 349 41 267 -16 191 -16 c 0
 131 -16 91 0 42 21 c 0
 36 24 31 28 31 35 c 2
 31 58 l 2
 31 79 29 98 29 120 c 0
 29 130 36 133 43 133 c 0
 62 133 64 116 68 105 c 0
 96 30 148 17 200 17 c 0
 242 17 289 53 289 103 c 0
 289 212 35 152 35 310 c 0
 35 396 109 464 194 464 c 0xf0
EndSplineSet
EndChar

StartChar: t
Encoding: 116 116 20
Width: 378
VWidth: 0
Flags: HW
HStem: -17 42<222.933 305.492> 399 45<18.5655 121.77 214.037 328.988>
VStem: 115 93<37.5499 346.576> 121 99<454.056 581.874> 122 92<132.323 398.915 445.422 572.929> 319 37<41.4244 102.991>
LayerCount: 3
Fore
SplineSet
355 84 m 0xe4
 355 25 320 -17 244 -17 c 0
 178 -17 115 19 115 90 c 0xe4
 115 113 125 358 125 387 c 0
 125 401 128 402 109 402 c 2
 33 402 l 2
 23 402 19 415 19 423 c 2
 19 428 l 2
 19 443 28 448 38 447 c 2
 111 444 l 2
 123 444 122 448 122 463 c 2xcc
 121 557 l 2
 121 579 133 579 165 587 c 0
 184 591 198 594 207 594 c 0
 217 594 220 590 220 575 c 0xd4
 220 561 210 463 210 453 c 0xcc
 210 444 213 444 232 444 c 2
 319 444 l 2
 325 444 329 437 329 421 c 0
 329 404 319 398 314 398 c 2
 229 402 l 2
 213 402 212 401 212 385 c 0
 212 338 207 204 207 116 c 0
 207 77 214 24 260 24 c 0
 293 24 315 47 320 75 c 0
 323 90 321 103 338 103 c 0
 348 103 355 94 355 84 c 0xe4
EndSplineSet
EndChar

StartChar: u
Encoding: 117 117 21
Width: 638
VWidth: 0
Flags: HW
HStem: -16 45<216.431 327.901 528.492 616.883> 414 44<19.0095 108.647 332.243 430.763>
VStem: 110 94<37.756 413.594> 433 95<25.6091 115.195 120.91 414> 443 85<25.6091 117>
LayerCount: 3
Fore
SplineSet
257 29 m 0xe8
 326 29 433 112 433 171 c 2
 433 364 l 2
 433 384 431 414 414 414 c 2
 347 414 l 2
 339 414 332 430 332 439 c 0
 332 447 337 458 345 458 c 0
 379 458 428 456 453 456 c 0
 471 456 500 457 516 457 c 0
 522 457 532 455 532 435 c 0
 532 394 528 219 528 110 c 2
 528 63 l 2xf0
 528 37 532 24 567 24 c 2
 601 24 l 2
 614 24 617 18 617 10 c 0
 617 -2 615 -15 601 -15 c 0
 587 -15 528 -10 512 -10 c 0
 495 -10 466 -11 449 -11 c 0
 438 -11 436 -7 436 1 c 0
 436 8 440 79 443 117 c 1
 443 117 374 -16 238 -16 c 0
 124 -16 110 33 110 106 c 2
 110 373 l 2
 110 393 108 413 84 414 c 2
 55 415 l 2
 32 416 19 415 19 436 c 0
 19 453 32 458 38 458 c 0
 47 458 124 454 191 454 c 0
 208 454 208 445 208 432 c 0
 207 347 204 261 204 176 c 2
 204 139 l 2
 204 69 206 29 257 29 c 0xe8
EndSplineSet
EndChar

StartChar: v
Encoding: 118 118 22
Width: 548
VWidth: 0
Flags: HW
HStem: 185 88<426.44 501.56>
VStem: 420 88<191.44 266.56>
LayerCount: 3
Fore
SplineSet
10 434 m 0
 10 449 11 452 26 452 c 0
 42 452 99 446 140 446 c 0
 166 446 224 449 248 449 c 0
 258 449 260 448 260 433 c 0
 260 424 261 420 252 419 c 0
 225 415 193 413 193 385 c 0
 193 380 194 375 196 369 c 2
 286 150 l 2
 293 132 297 122 301 122 c 0
 304 122 308 131 316 150 c 2
 394 336 l 2
 398 347 405 368 405 385 c 0
 405 402 399 416 378 416 c 2
 357 416 l 2
 341 416 335 416 335 434 c 0
 335 444 339 447 351 447 c 0
 357 447 421 444 456 444 c 0
 472 444 504 446 522 446 c 0
 527 446 536 445 536 435 c 0
 536 412 516 413 504 412 c 0
 469 408 463 408 446 368 c 2
 298 13 l 2
 289 -9 288 -19 273 -19 c 0
 258 -19 257 -4 249 14 c 2
 95 377 l 1
 84 406 76 409 60 411 c 2
 30 414 l 2
 17 415 10 415 10 434 c 0
EndSplineSet
EndChar

StartChar: w
Encoding: 119 119 23
Width: 852
VWidth: 0
Flags: HW
HStem: -14 138<266 297.5 598 632> 376 71<417.001 439.999> 420 32<16.0066 77.8351 186.68 259.894 322.083 396.47 513.932 585.94 645.075 714.13 780.061 838.983>
DStem2: 192 369 98 367 0.393291 -0.919414<-27.316 266.079> 307 146 294 15 0.337553 0.941307<-24.3695 256.931> 519 379 440 358 0.374641 -0.92717<-20.6116 279.79> 644 151 677 150 0.346195 0.938163<-31.981 240.403>
LayerCount: 3
Fore
SplineSet
16 435 m 0xc0
 16 450 25 452 40 452 c 0
 52 452 106 447 140 447 c 0xc0
 192 447 230 452 242 452 c 0
 251 452 258 450 258 433 c 0
 258 424 254 420 245 419 c 0
 221 416 185 423 185 396 c 0
 185 390 187 381 192 369 c 2
 282 150 l 2
 289 134 292 124 296 124 c 0
 299 124 301 131 307 146 c 2
 382 350 l 2
 387 363 396 385 396 399 c 0
 396 417 382 420 358 420 c 2
 338 420 l 2
 330 420 322 424 322 430 c 2
 322 439 l 2
 322 449 325 452 336 452 c 0xa0
 347 452 398 447 448 447 c 0xc0
 510 447 551 453 568 453 c 0
 578 453 586 449 586 438 c 0
 586 425 581 420 566 418 c 0
 540 415 513 418 513 399 c 0
 513 395 517 384 519 379 c 2
 615 150 l 2
 623 132 626 122 630 122 c 0
 633 122 637 132 643 151 c 2
 709 336 l 2
 713 347 720 366 720 383 c 0
 720 399 714 414 694 416 c 2
 658 420 l 2
 649 421 645 426 645 434 c 0
 645 444 649 452 661 452 c 0xa0
 667 452 718 447 752 447 c 0xc0
 786 447 818 452 828 452 c 0xa0
 833 452 839 447 839 437 c 0
 839 420 835 421 823 419 c 0
 792 415 772 409 757 368 c 2
 677 150 l 2
 663 113 646 82 624 13 c 0
 617 -8 611 -12 602 -12 c 0
 590 -12 586 -4 579 14 c 2
 440 358 l 2
 435 369 432 376 428 376 c 0
 425 376 422 370 418 358 c 2
 294 15 l 2
 286 -7 286 -14 273 -14 c 0
 259 -14 257 -4 249 14 c 2
 98 367 l 2
 79 413 72 415 33 420 c 0
 25 421 16 424 16 435 c 0xc0
EndSplineSet
EndChar

StartChar: x
Encoding: 120 120 24
Width: 550
VWidth: 0
Flags: HW
HStem: -4 39<8.01458 89.6149 142.019 204.948 268.01 340.311 456.812 526.973> 416 30<30.6731 82.3279 200.005 243.39 343.02 386.998 437.285 514.877> 417 32<7.01163 82.3279 200.206 255.996>
DStem2: 279 286 217 230 0.599618 -0.800287<-142.414 6.8195 63.0123 221.725> 219 205 150 70 0.649575 0.760298<-166.165 2.8262 104.202 263.103>
LayerCount: 3
Fore
SplineSet
107 2 m 0xc0
 60 2 34 -4 22 -4 c 0
 10 -4 8 0 8 15 c 0
 8 34 28 30 50 35 c 0
 84 43 87 51 112 80 c 2
 219 205 l 2
 228 216 226 219 217 230 c 2
 108 370 l 2
 71 417 78 411 31 416 c 0xc0
 23 417 7 419 7 433 c 0
 7 448 15 453 30 453 c 0
 44 453 81 445 147 445 c 0
 218 445 231 449 244 449 c 0
 251 449 256 448 256 433 c 0
 256 424 254 417 245 417 c 2
 227 417 l 2xa0
 207 417 200 413 200 405 c 0
 200 400 203 393 208 385 c 2
 279 286 l 2
 286 276 285 275 293 285 c 0
 310 305 345 344 366 371 c 0
 374 381 387 398 387 408 c 0
 387 412 384 415 378 416 c 2
 358 418 l 2
 349 419 343 422 343 430 c 0
 343 440 346 446 358 446 c 0
 364 446 412 442 434 442 c 0
 468 442 496 446 506 446 c 0
 511 446 515 443 515 433 c 0
 515 414 496 417 484 415 c 0
 453 411 444 413 414 379 c 2
 321 269 l 2
 313 260 308 256 308 252 c 0
 308 248 312 244 319 234 c 2
 459 50 l 2
 474 31 485 34 506 31 c 0
 523 29 527 27 527 17 c 0
 527 0 518 -1 507 -1 c 0
 481 -1 448 4 397 4 c 0
 346 4 290 -3 282 -3 c 0
 272 -3 268 2 268 16 c 0
 268 32 282 29 298 30 c 0
 324 31 342 33 342 56 c 0
 342 59 339 67 338 68 c 2
 258 178 l 2
 250 190 248 191 239 180 c 2
 150 70 l 2
 143 61 142 57 142 52 c 0
 142 34 168 34 190 32 c 0
 201 31 205 24 205 14 c 0
 205 -2 197 -2 188 -2 c 0
 166 -2 146 2 107 2 c 0xc0
EndSplineSet
EndChar

StartChar: y
Encoding: 121 121 25
Width: 610
VWidth: 0
Flags: HW
HStem: -246 30<103.409 175.797> 421 33<18.2695 87.9535 220.828 289.922 379.082 440.324 520.506 587.896>
VStem: 21 82<-215.238 -140.382>
DStem2: 217 367 104 384 0.420358 -0.907358<-16.8929 291.785> 272 -36 308 -43 0.41064 0.911798<-171.137 26.7819 149.956 447.821>
LayerCount: 3
Fore
SplineSet
268 30 m 2
 166 254 l 2
 146 298 131 341 104 384 c 0
 90 406 79 415 64 417 c 0
 50 419 40 419 30 421 c 0
 21 423 18 427 18 435 c 2
 18 438 l 2
 18 453 24 454 30 454 c 0
 46 454 84 447 162 447 c 0
 228 447 261 452 268 452 c 0
 278 452 290 451 290 436 c 0
 290 427 283 422 274 421 c 0
 236 417 213 410 213 384 c 0
 213 379 214 373 217 367 c 2
 323 118 l 2
 328 105 331 100 335 100 c 0
 339 100 343 107 348 118 c 2
 449 351 l 2
 452 358 453 366 453 374 c 0
 453 393 444 411 421 415 c 0
 415 416 408 418 401 419 c 0
 386 422 379 422 379 436 c 0
 379 445 385 451 398 451 c 0
 404 451 438 445 486 445 c 0
 502 445 572 452 577 452 c 0
 584 452 588 447 588 435 c 0
 588 422 579 422 568 420 c 0
 536 414 512 411 494 370 c 2
 389 134 l 2
 362 73 329 8 308 -43 c 0
 274 -128 230 -246 118 -246 c 0
 66 -246 21 -216 21 -174 c 0
 21 -152 36 -136 62 -136 c 0
 101 -136 103 -175 103 -199 c 0
 103 -213 123 -216 135 -216 c 0
 155 -216 174 -206 188 -192 c 0
 230 -151 258 -80 272 -36 c 0
 276 -24 278 -16 278 -9 c 0
 278 4 276 13 268 30 c 2
EndSplineSet
EndChar

StartChar: z
Encoding: 122 122 26
Width: 458
VWidth: 0
Flags: HWO
HStem: 0 31<140 344.089> 410 30<107.607 293.996>
VStem: 31 34<302.082 360.685> 395 31<83.4944 130.999>
DStem2: 31 29 140 31 0.570754 0.821121<63.8544 457.05>
LayerCount: 3
Fore
SplineSet
45 303 m 0
 33 303 31 305 31 310 c 0
 31 319 38 374 40 423 c 0
 41 439 41 440 59 440 c 2
 377 440 l 2
 410 440 415 440 415 434 c 0
 415 430 413 424 409 419 c 2
 140 32 l 1
 276 32 l 2
 364 32 382 82 395 123 c 0
 398 131 397 132 410 132 c 0
 425 132 426 130 426 122 c 0
 426 106 423 66 423 16 c 0
 423 2 418 0 404 0 c 2
 35 0 l 2
 26 0 24 5 24 10 c 0
 24 20 29 26 31 29 c 0
 123 146 206 273 283 384 c 0
 289 393 294 400 294 404 c 0
 294 409 288 411 273 411 c 2
 148 411 l 2
 103 411 81 370 65 323 c 0
 60 310 64 303 45 303 c 0
EndSplineSet
EndChar

StartChar: zero
Encoding: 48 48 53
Width: 176
VWidth: 0
Flags: W
HStem: 185 88<50.4399 125.56>
VStem: 44 88<191.44 266.56>
LayerCount: 3
Fore
SplineSet
44 229 m 0
 44 253 64 273 88 273 c 0
 112 273 132 253 132 229 c 0
 132 205 112 185 88 185 c 0
 64 185 44 205 44 229 c 0
EndSplineSet
EndChar

StartChar: one
Encoding: 49 49 54
Width: 176
VWidth: 0
Flags: W
HStem: 185 88<50.4399 125.56>
VStem: 44 88<191.44 266.56>
LayerCount: 3
Fore
SplineSet
44 229 m 0
 44 253 64 273 88 273 c 0
 112 273 132 253 132 229 c 0
 132 205 112 185 88 185 c 0
 64 185 44 205 44 229 c 0
EndSplineSet
EndChar

StartChar: two
Encoding: 50 50 55
Width: 176
VWidth: 0
Flags: W
HStem: 185 88<50.4399 125.56>
VStem: 44 88<191.44 266.56>
LayerCount: 3
Fore
SplineSet
44 229 m 0
 44 253 64 273 88 273 c 0
 112 273 132 253 132 229 c 0
 132 205 112 185 88 185 c 0
 64 185 44 205 44 229 c 0
EndSplineSet
EndChar

StartChar: three
Encoding: 51 51 56
Width: 176
VWidth: 0
Flags: W
HStem: 185 88<50.4399 125.56>
VStem: 44 88<191.44 266.56>
LayerCount: 3
Fore
SplineSet
44 229 m 0
 44 253 64 273 88 273 c 0
 112 273 132 253 132 229 c 0
 132 205 112 185 88 185 c 0
 64 185 44 205 44 229 c 0
EndSplineSet
EndChar

StartChar: four
Encoding: 52 52 57
Width: 176
VWidth: 0
Flags: W
HStem: 185 88<50.4399 125.56>
VStem: 44 88<191.44 266.56>
LayerCount: 3
Fore
SplineSet
44 229 m 0
 44 253 64 273 88 273 c 0
 112 273 132 253 132 229 c 0
 132 205 112 185 88 185 c 0
 64 185 44 205 44 229 c 0
EndSplineSet
EndChar

StartChar: five
Encoding: 53 53 58
Width: 176
VWidth: 0
Flags: W
HStem: 185 88<50.4399 125.56>
VStem: 44 88<191.44 266.56>
LayerCount: 3
Fore
SplineSet
44 229 m 0
 44 253 64 273 88 273 c 0
 112 273 132 253 132 229 c 0
 132 205 112 185 88 185 c 0
 64 185 44 205 44 229 c 0
EndSplineSet
EndChar

StartChar: six
Encoding: 54 54 59
Width: 176
VWidth: 0
Flags: W
HStem: 185 88<50.4399 125.56>
VStem: 44 88<191.44 266.56>
LayerCount: 3
Fore
SplineSet
44 229 m 0
 44 253 64 273 88 273 c 0
 112 273 132 253 132 229 c 0
 132 205 112 185 88 185 c 0
 64 185 44 205 44 229 c 0
EndSplineSet
EndChar

StartChar: seven
Encoding: 55 55 60
Width: 176
VWidth: 0
Flags: W
HStem: 185 88<50.4399 125.56>
VStem: 44 88<191.44 266.56>
LayerCount: 3
Fore
SplineSet
44 229 m 0
 44 253 64 273 88 273 c 0
 112 273 132 253 132 229 c 0
 132 205 112 185 88 185 c 0
 64 185 44 205 44 229 c 0
EndSplineSet
EndChar

StartChar: eight
Encoding: 56 56 61
Width: 176
VWidth: 0
Flags: W
HStem: 185 88<50.4399 125.56>
VStem: 44 88<191.44 266.56>
LayerCount: 3
Fore
SplineSet
44 229 m 0
 44 253 64 273 88 273 c 0
 112 273 132 253 132 229 c 0
 132 205 112 185 88 185 c 0
 64 185 44 205 44 229 c 0
EndSplineSet
EndChar

StartChar: nine
Encoding: 57 57 62
Width: 176
VWidth: 0
Flags: W
HStem: 185 88<50.4399 125.56>
VStem: 44 88<191.44 266.56>
LayerCount: 3
Fore
SplineSet
44 229 m 0
 44 253 64 273 88 273 c 0
 112 273 132 253 132 229 c 0
 132 205 112 185 88 185 c 0
 64 185 44 205 44 229 c 0
EndSplineSet
EndChar
